# xmcd
#
# Track frame offsets: 
#        150
#        22542
#        37288
#        65183
#        87333
#        112039
#        132376
#        151490
#        166416
#        181640
#        199851
#        216058
#        233104
#        249558
#        268173
#        287337
#        303368
#        322610
#
# Disc length: 4519 seconds
#
# Revision: 0
# Processed by: cddbd v1.5.2PL0 Copyright (c) Steve Scherf et al.
# Submitted via: ExactAudioCopy v1.0b3
#
DISCID=f811a512
DTITLE=The Temptations - Hear To Tempt You and Bare Back
DYEAR=2014
DGENRE=Soul
TTITLE0=Think For Yourself
TTITLE1=In A Lifetime
TTITLE2=Can We Come And Share In Love
TTITLE3=She's All I've Got
TTITLE4=Snake In The Grass
TTITLE5=It's Time For Love
TTITLE6=Let's Live In Peace
TTITLE7=Read Between The Lines
TTITLE8=I Could Never Stop Loving You
TTITLE9=Mystic Woman (Love Me Over)
TTITLE10=I Just Don't Know How To Let You Go
TTITLE11=That's When You Need Love
TTITLE12=Bare Back
TTITLE13=Ever Ready Love
TTITLE14=Wake Up To Me
TTITLE15=You're So Easy To Love
TTITLE16=I See My Child
TTITLE17=Touch Me Again
EXTD=
EXTT0=
EXTT1=
EXTT2=
EXTT3=
EXTT4=
EXTT5=
EXTT6=
EXTT7=
EXTT8=
EXTT9=
EXTT10=
EXTT11=
EXTT12=
EXTT13=
EXTT14=
EXTT15=
EXTT16=
EXTT17=
PLAYORDER=
